PathFileType	4	(X/Y/Z)	C:/Users/beibeiliu/ov580/test_trc/User2\sequence.13_training_dense_right.trc
DataRate	CameraRate	NumFrames	NumMarkers	Units	OrigDataRate	OrigDataStartFrame	OrigNumFrames
120	120	14	19	mm	120	32	62
Frame#	Time	ThumbCMC			ThumbMCP			ThumbIP			ThumbTip			IndexMCP			IndexPIP			IndexTip			MiddleMCP			MiddlePIP			MiddleTip			RingMCP			RingPIP			RingTip			PinkyMCP			PinkyPIP			PinkyTip			BackHand1			BackHand2			BackHand3	
		X0	Y0	Z0	X1	Y1	Z1	X2	Y2	Z2	X3	Y3	Z3	X4	Y4	Z4	X5	Y5	Z5	X6	Y6	Z6	X7	Y7	Z7	X8	Y8	Z8	X9	Y9	Z9	X10	Y10	Z10	X11	Y11	Z11	X12	Y12	Z12	X13	Y13	Z13	X14	Y14	Z14	X15	Y15	Z15	X16	Y16	Z16	X17	Y17	Z17	X18	Y18	Z18	
31	0.258333	135.8	45.4314	-42.6932	109.83	74.6248	-60.5765	87.5209	92.3044	-76.3761	69.5753	107.306	-88.1922	107.758	19.6579	-114.083	99.0227	28.1169	-142.064	86.5282	34.2361	-165.041	75.942	12.618	-112.01	58.1144	23.6711	-134.648	41.9575	37.0623	-160.752	58.6265	26.3242	-97.6451	48.0489	55.4479	-104.942	57.6144	83.8161	-91.6344	48.6699	18.5486	-74.1927	38.3476	29.9171	-94.6918	27.8309	35.806	-115.946	88.8381	-2.49354	-46.8354	105.435	-10.2542	-16.2764	125.072	0.633119	-44.9879	
32	0.266667	145.048	39.9728	-46.1553	115.089	64.4709	-69.1659	90.8394	78.9241	-89.9949	71.5708	88.2208	-101.186	120.958	4.91607	-117.265	113.425	12.0212	-148.269	102.59	15.7703	-168.593	91.4114	-4.19868	-113.221	73.9474	4.29021	-142.578	52.3847	12.4803	-164.413	70.3001	6.14249	-102.13	58.349	33.0708	-115.669	61.3945	66.2021	-99.8168	61.7819	0.618838	-79.5537	45.7711	8.04777	-100.554	37.0324	14.9478	-126.134	98.2074	-16.0942	-47.3121	109.876	-17.1294	-17.9506	134.493	-7.89854	-49.2689	
33	0.275	148.671	33.3315	-50.8895	121.895	54.8964	-73.0203	95.0273	63.8432	-95.8663	74.2203	68.4258	-113.017	135.916	-7.27083	-124.544	126.963	-5.45399	-148.142	113.632	-5.34827	-171.624	103.236	-21.1808	-113.955	87.7161	-17.8993	-144.683	70.4091	-12.5118	-168.575	81.007	-12.3276	-108.865	67.3877	11.283	-122.536	67.2769	42.3802	-109.285	73.033	-17.5162	-86.6662	59.9298	-13.3622	-107.496	48.3761	-12.1266	-132.632	112.662	-27.2957	-49.9266	123.56	-23.8662	-22.0381	150.508	-11.2899	-48.0907	
34	0.283333	154.397	29.7433	-54.9949	126.256	47.0514	-81.4308	101.321	49.1532	-100.193	79.963	52.536	-120.52	147.602	-15.5638	-122.308	144.009	-14.0649	-153.188	133.719	-15.9643	-173.695	123.961	-30.6246	-121.752	107.29	-30.9868	-146.413	87.0694	-28.6572	-174.245	101.292	-25.0041	-111.535	84.0637	-5.66583	-127.236	84.1119	31.6372	-114.765	89.457	-28.8344	-90.2787	76.1092	-27.1905	-113.216	69.7746	-26.7287	-136.778	124.7	-30.3463	-49.2367	135.964	-24.4989	-19.5814	161.02	-13.7742	-50.3782	
35	0.291667	162.736	35.0864	-51.2106	132.831	45.8984	-83.8749	108.336	47.0255	-106.978	88.6752	40.369	-121.033	170.53	-9.77261	-125.393	161.5	-11.1668	-147.844	157.735	-11.9929	-173.966	144.315	-32.1093	-122.87	130.301	-34.1059	-149.929	112.333	-35.4974	-175.259	120.037	-29.7032	-112.048	104.316	-6.76668	-132.504	95.0481	25.0703	-115.146	110.332	-35.0896	-96.0065	100.637	-33.4649	-115.781	91.6198	-33.5144	-142.03	145.776	-30.3913	-51.8127	149.754	-23.0773	-17.7084	173.509	-10.3383	-46.7404	
36	0.3	165.673	42.6677	-51.3422	136.787	50.4903	-77.9714	113.355	44.326	-109.972	96.3412	38.0892	-124.561	185.478	2.47158	-120.654	183.765	5.38786	-146.693	176.394	1.27879	-171.1	169.433	-19.0854	-123.046	156.427	-23.7236	-149.735	144.669	-25.9109	-181.588	143.311	-23.1287	-114.415	121.166	-3.58399	-132.633	108.616	24.3598	-114.983	130.862	-34.3281	-94.7134	122.084	-35.2416	-125.348	119.851	-33.0299	-143.882	161.203	-22.7786	-52.2488	164.806	-18.1715	-22.6083	185.761	3.20222	-41.3193	
37	0.308333	160.334	54.4643	-41.7159	132.823	58.8519	-74.5504	113.596	48.5116	-108.54	100.231	37.8086	-125.207	196.078	28.2869	-113.566	194.801	28.4855	-140.381	194.675	31.8434	-168.345	186.902	-0.0664345	-119.725	177.855	-5.42458	-149.321	168.806	-8.59483	-180.365	162.271	-9.70856	-114.977	135.433	6.30974	-132.375	116.468	27.6543	-115.766	152.053	-25.5331	-100.03	145.512	-23.7921	-127.794	143.102	-19.6929	-150.848	177.019	-11.9735	-49.7465	175.119	-10.8021	-20.6476	192.292	20.3454	-41.7076	
38	0.316667	152.951	64.8013	-34.9717	127.424	64.4815	-69.1828	112.833	53.9962	-103.955	101.329	43.7496	-120.935	198.343	52.9151	-109.26	198.825	57.8888	-135.158	196.376	58.574	-162.801	194.963	20.9528	-113.066	191.67	21.9728	-144.352	186.284	19.9118	-177.513	172.739	11.351	-115.471	148.414	15.9908	-132.106	119.533	33.1894	-117.267	166.74	-9.31122	-97.7749	159.693	-8.79656	-122.525	156.933	-2.1911	-146.248	183.456	4.43784	-47.3905	181.368	5.10748	-17.8364	192.524	36.8207	-33.8225	
39	0.325	139.126	73.2214	-29.0454	119.978	65.9915	-67.7367	110.845	55.1563	-99.1814	100.76	46.8023	-118.611	189.557	77.886	-93.8912	190.726	84.9573	-122.559	187.539	88.0093	-151.702	197.596	50.8438	-107.85	195.191	48.9407	-140.823	190.242	47.5161	-171.833	179.155	28.6145	-112.211	155.771	33.8066	-131.365	121.4	39.4495	-122.363	176.149	11.5211	-96.3146	169.88	11.5606	-124.245	163.122	17.8936	-148.206	186.483	17.7931	-44.6582	180.078	13.7959	-11.7927	185.51	54.1866	-26.3492	
40	0.333333	119.666	71.4988	-25.376	103.078	63.1885	-60.8416	97.2999	56.4233	-95.7689	98.9096	47.5769	-119.347	165.996	102.103	-84.3721	164.701	107.063	-113.22	159.502	111.251	-144.221	186.038	80.2333	-95.5866	184.685	88.1266	-125.581	182.902	91.4959	-159.965	181.788	54.6703	-100.74	165.097	57.8062	-129.327	134.412	49.7141	-139.347	182.57	30.4121	-93.8224	176.498	33.3266	-123.025	165.806	37.2846	-145.965	182.289	41.8995	-39.7295	179.023	30.8702	-8.40266	166.697	66.0137	-18.8159	
41	0.341667	102.437	59.3013	-24.31	87.1883	50.3212	-60.4797	91.6182	45.4075	-97.4975	98.9282	38.6059	-123.778	135.066	110.682	-79.7197	132.8	116.331	-109.057	126.778	118.73	-135.375	161.715	104.193	-88.6068	163.763	112.522	-118.153	162.731	120.366	-150.899	173.351	77.497	-96.2044	165.549	81.4908	-122.365	143.494	68.7224	-149.803	179.08	47.6853	-88.7801	168.62	51.3461	-121.88	155.827	45.3497	-141.788	172.785	55.3619	-33.5387	168.751	42.5275	-8.81783	143.759	73.7584	-13.5264	
42	0.35	95.7883	50.5313	-26.1775	85.1228	38.5389	-62.3462	91.7367	34.1905	-100.951	105.239	29.5342	-125.327	121.668	104.941	-84.3824	117.607	109.553	-109.187	111.511	108.971	-137.544	148.371	104.545	-87.7233	148.207	115.295	-112.96	146.043	127.393	-144.205	159.491	81.2466	-92.3795	156.804	84.6967	-122.684	143.365	80.6526	-148.262	171.192	52.0079	-89.5709	159.659	48.8739	-119.181	135.87	34.9522	-134.779	163.665	58.9695	-32.5627	163.029	45.8682	-7.47229	132.461	73.268	-16.6717	
43	0.358333	86.806	43.6832	-25.1805	83.0772	28.3066	-61.1709	90.3733	20.6037	-96.0632	106.525	15.7219	-116.696	111.061	95.1339	-82.7928	102.439	101.642	-116.066	98.4727	97.355	-140.665	134.184	96.6042	-85.3681	130.418	112.113	-115.344	129.736	121.543	-143.617	151.161	76.384	-92.1431	145.627	78.2596	-125.105	139.031	71.0382	-151.193	162.232	48.586	-91.4866	144.355	37.4491	-116.058	124.057	14.8275	-119.211	155.191	59.0671	-32.3288	156.185	49.4085	-5.27293	126.251	67.9969	-14.6625	
44	0.366667	83.8238	42.298	-21.2244	72.4664	21.2696	-50.2769	78.3392	6.29535	-83.3747	96.8657	-2.23368	-104.063	97.6737	85.8026	-90.2097	89.8639	85.4066	-115.112	87.55	77.605	-144.577	121.101	85.6354	-92.9184	119.708	93.6948	-123.435	115.586	102.294	-151.962	139.09	62.2835	-98.7552	132.278	60.7622	-127.53	123.655	50.7965	-152.111	145.027	34.2021	-88.2331	127.315	13.5345	-108.682	105.464	-2.50368	-97.2107	149.131	57.3624	-37.523	150.106	47.5308	-2.46138	117.982	69.0905	-14.8984	
